<?xml version="1.0" encoding="UTF-8" standalone="no"?>
<svg
   xmlns:dc="http://purl.org/dc/elements/1.1/"
   xmlns:cc="http://creativecommons.org/ns#"
   xmlns:rdf="http://www.w3.org/1999/02/22-rdf-syntax-ns#"
   xmlns:svg="http://www.w3.org/2000/svg"
   xmlns="http://www.w3.org/2000/svg"
   viewBox="0 0 743.75 1052.5"
   height="1052.5"
   width="743.75"
   xml:space="preserve"
   version="1.1"
   id="svg2"><metadata
     id="metadata8"><rdf:RDF><cc:Work
         rdf:about=""><dc:format>image/svg+xml</dc:format><dc:type
           rdf:resource="http://purl.org/dc/dcmitype/StillImage" /></cc:Work></rdf:RDF></metadata><defs
     id="defs6"><clipPath
       id="clipPath16"
       clipPathUnits="userSpaceOnUse"><path
         style="clip-rule:evenodd"
         id="path18"
         d="m 0,0.1 595.2,0 0,841.8 L 0,841.9 0,0.1 Z" /></clipPath></defs><g
     transform="matrix(1.25,0,0,-1.25,0,1052.5)"
     id="g10"><g
       id="g12"><g
         clip-path="url(#clipPath16)"
         id="g14"><g
           id="g20"><text
             id="text22"
             style="font-variant:normal;font-weight:normal;font-size:10px;font-family:'Liberation Mono';-inkscape-font-specification:LiberationMono;writing-mode:lr-tb;fill:#000000;fill-opacity:1;fill-rule:nonzero;stroke:none"
             transform="matrix(1,0,0,-1,56.8,776.9)"><tspan
               id="tspan24"
               y="0"
               x="0 6 12 18 24 30 36 42 48 54 60 66 72 78 84 90 96 102 108 114 120 126">&lt;?xml version=&quot;1.0&quot; ?&gt;</tspan></text>
</g><g
           id="g26"><text
             id="text28"
             style="font-variant:normal;font-weight:normal;font-size:10px;font-family:'Liberation Mono';-inkscape-font-specification:LiberationMono;writing-mode:lr-tb;fill:#000000;fill-opacity:1;fill-rule:nonzero;stroke:none"
             transform="matrix(1,0,0,-1,56.8,754.2)"><tspan
               id="tspan30"
               y="0"
               x="0 6 12 18 24 30 36 42">&lt;arbaro&gt;</tspan></text>
</g><g
           id="g32"><text
             id="text34"
             style="font-variant:normal;font-weight:normal;font-size:10px;font-family:'Liberation Mono';-inkscape-font-specification:LiberationMono;writing-mode:lr-tb;fill:#000000;fill-opacity:1;fill-rule:nonzero;stroke:none"
             transform="matrix(1,0,0,-1,68.8,742.9)"><tspan
               id="tspan36"
               y="0"
               x="0 6 12 18 24 30 36 42 48 54 60 66 72 78 84 90 96 102 108 114 120 126 132 138 144 150 156 162 168">&lt;species name=&quot;ca_black_oak&quot;&gt;</tspan></text>
</g><g
           id="g38"><text
             id="text40"
             style="font-variant:normal;font-weight:normal;font-size:10px;font-family:'Liberation Mono';-inkscape-font-specification:LiberationMono;writing-mode:lr-tb;fill:#000000;fill-opacity:1;fill-rule:nonzero;stroke:none"
             transform="matrix(1,0,0,-1,80.8,731.5)"><tspan
               id="tspan42"
               y="0"
               x="0 6 12 18 24 30 36 42 48 54 60 66 72 78 84 90 96 102 108 114 120 126 132">&lt;!-- general params --&gt;</tspan></text>
</g><g
           id="g44"><text
             id="text46"
             style="font-variant:normal;font-weight:normal;font-size:10px;font-family:'Liberation Mono';-inkscape-font-specification:LiberationMono;writing-mode:lr-tb;fill:#000000;fill-opacity:1;fill-rule:nonzero;stroke:none"
             transform="matrix(1,0,0,-1,80.8,720.2)"><tspan
               id="tspan48"
               y="0"
               x="0 6 12 18 24 30 36 42 48 54 60 66 72 78 84 90 96 102 108 114 120 126 132 138 144 150 156 162 168 174 180">&lt;param name=&quot;Shape&quot; value=&quot;2&quot;/&gt;</tspan></text>
</g><g
           id="g50"><text
             id="text52"
             style="font-variant:normal;font-weight:normal;font-size:10px;font-family:'Liberation Mono';-inkscape-font-specification:LiberationMono;writing-mode:lr-tb;fill:#000000;fill-opacity:1;fill-rule:nonzero;stroke:none"
             transform="matrix(1,0,0,-1,80.8,708.8)"><tspan
               id="tspan54"
               y="0"
               x="0 6 12 18 24 30 36 42 48 54 60 66 72 78 84 90 96 102 108 114 120 126 132 138 144 150 156 162 168 174 180 186 192 198 204 210 216">&lt;param name=&quot;BaseSize&quot; value=&quot;0.05&quot;/&gt;</tspan></text>
</g><g
           id="g56"><text
             id="text58"
             style="font-variant:normal;font-weight:normal;font-size:10px;font-family:'Liberation Mono';-inkscape-font-specification:LiberationMono;writing-mode:lr-tb;fill:#000000;fill-opacity:1;fill-rule:nonzero;stroke:none"
             transform="matrix(1,0,0,-1,80.8,697.5)"><tspan
               id="tspan60"
               y="0"
               x="0 6 12 18 24 30 36 42 48 54 60 66 72 78 84 90 96 102 108 114 120 126 132 138 144 150 156 162 168 174 180 186">&lt;param name=&quot;Scale&quot; value=&quot;10&quot;/&gt;</tspan></text>
</g><g
           id="g62"><text
             id="text64"
             style="font-variant:normal;font-weight:normal;font-size:10px;font-family:'Liberation Mono';-inkscape-font-specification:LiberationMono;writing-mode:lr-tb;fill:#000000;fill-opacity:1;fill-rule:nonzero;stroke:none"
             transform="matrix(1,0,0,-1,80.8,686.1)"><tspan
               id="tspan66"
               y="0"
               x="0 6 12 18 24 30 36 42 48 54 60 66 72 78 84 90 96 102 108 114 120 126 132 138 144 150 156 162 168 174 180 186 192">&lt;param name=&quot;ScaleV&quot; value=&quot;10&quot;/&gt;</tspan></text>
</g><g
           id="g68"><text
             id="text70"
             style="font-variant:normal;font-weight:normal;font-size:10px;font-family:'Liberation Mono';-inkscape-font-specification:LiberationMono;writing-mode:lr-tb;fill:#000000;fill-opacity:1;fill-rule:nonzero;stroke:none"
             transform="matrix(1,0,0,-1,80.8,674.8)"><tspan
               id="tspan72"
               y="0"
               x="0 6 12 18 24 30 36 42 48 54 60 66 72 78 84 90 96 102 108 114 120 126 132 138 144 150 156 162 168 174 180 186">&lt;param name=&quot;Levels&quot; value=&quot;3&quot;/&gt;</tspan></text>
</g><g
           id="g74"><text
             id="text76"
             style="font-variant:normal;font-weight:normal;font-size:10px;font-family:'Liberation Mono';-inkscape-font-specification:LiberationMono;writing-mode:lr-tb;fill:#000000;fill-opacity:1;fill-rule:nonzero;stroke:none"
             transform="matrix(1,0,0,-1,80.8,663.4)"><tspan
               id="tspan78"
               y="0"
               x="0 6 12 18 24 30 36 42 48 54 60 66 72 78 84 90 96 102 108 114 120 126 132 138 144 150 156 162 168 174 180 186 192 198 204">&lt;param name=&quot;Ratio&quot; value=&quot;0.018&quot;/&gt;</tspan></text>
</g><g
           id="g80"><text
             id="text82"
             style="font-variant:normal;font-weight:normal;font-size:10px;font-family:'Liberation Mono';-inkscape-font-specification:LiberationMono;writing-mode:lr-tb;fill:#000000;fill-opacity:1;fill-rule:nonzero;stroke:none"
             transform="matrix(1,0,0,-1,80.8,652.1)"><tspan
               id="tspan84"
               y="0"
               x="0 6 12 18 24 30 36 42 48 54 60 66 72 78 84 90 96 102 108 114 120 126 132 138 144 150 156 162 168 174 180 186 192 198 204 210 216 222">&lt;param name=&quot;RatioPower&quot; value=&quot;1.3&quot;/&gt;</tspan></text>
</g><g
           id="g86"><text
             id="text88"
             style="font-variant:normal;font-weight:normal;font-size:10px;font-family:'Liberation Mono';-inkscape-font-specification:LiberationMono;writing-mode:lr-tb;fill:#000000;fill-opacity:1;fill-rule:nonzero;stroke:none"
             transform="matrix(1,0,0,-1,80.8,640.7)"><tspan
               id="tspan90"
               y="0"
               x="0 6 12 18 24 30 36 42 48 54 60 66 72 78 84 90 96 102 108 114 120 126 132 138 144 150 156 162 168 174 180">&lt;param name=&quot;Lobes&quot; value=&quot;5&quot;/&gt;</tspan></text>
</g><g
           id="g92"><text
             id="text94"
             style="font-variant:normal;font-weight:normal;font-size:10px;font-family:'Liberation Mono';-inkscape-font-specification:LiberationMono;writing-mode:lr-tb;fill:#000000;fill-opacity:1;fill-rule:nonzero;stroke:none"
             transform="matrix(1,0,0,-1,80.8,629.4)"><tspan
               id="tspan96"
               y="0"
               x="0 6 12 18 24 30 36 42 48 54 60 66 72 78 84 90 96 102 108 114 120 126 132 138 144 150 156 162 168 174 180 186 192 198 204 210 216">&lt;param name=&quot;LobeDepth&quot; value=&quot;0.1&quot;/&gt;</tspan></text>
</g><g
           id="g98"><text
             id="text100"
             style="font-variant:normal;font-weight:normal;font-size:10px;font-family:'Liberation Mono';-inkscape-font-specification:LiberationMono;writing-mode:lr-tb;fill:#000000;fill-opacity:1;fill-rule:nonzero;stroke:none"
             transform="matrix(1,0,0,-1,80.8,618)"><tspan
               id="tspan102"
               y="0"
               x="0 6 12 18 24 30 36 42 48 54 60 66 72 78 84 90 96 102 108 114 120 126 132 138 144 150 156 162 168 174 180 186 192">&lt;param name=&quot;Flare&quot; value=&quot;1.2&quot;/&gt;</tspan></text>
</g><g
           id="g104"><text
             id="text106"
             style="font-variant:normal;font-weight:normal;font-size:10px;font-family:'Liberation Mono';-inkscape-font-specification:LiberationMono;writing-mode:lr-tb;fill:#000000;fill-opacity:1;fill-rule:nonzero;stroke:none"
             transform="matrix(1,0,0,-1,80.8,606.7)"><tspan
               id="tspan108"
               y="0"
               x="0 6 12 18 24 30 36 42 48 54 60 66 72 78 84 90 96 102 108 114 120 126 132 138 144 150 156 162 168 174 180 186 192">&lt;param name=&quot;Leaves&quot; value=&quot;25&quot;/&gt;</tspan></text>
</g><g
           id="g110"><text
             id="text112"
             style="font-variant:normal;font-weight:normal;font-size:10px;font-family:'Liberation Mono';-inkscape-font-specification:LiberationMono;writing-mode:lr-tb;fill:#000000;fill-opacity:1;fill-rule:nonzero;stroke:none"
             transform="matrix(1,0,0,-1,80.8,595.3)"><tspan
               id="tspan114"
               y="0"
               x="0 6 12 18 24 30 36 42 48 54 60 66 72 78 84 90 96 102 108 114 120 126 132 138 144 150 156 162 168 174 180 186 192 198 204">&lt;param name=&quot;LeafShape&quot; value=&quot;0&quot;/&gt;</tspan></text>
</g><g
           id="g116"><text
             id="text118"
             style="font-variant:normal;font-weight:normal;font-size:10px;font-family:'Liberation Mono';-inkscape-font-specification:LiberationMono;writing-mode:lr-tb;fill:#000000;fill-opacity:1;fill-rule:nonzero;stroke:none"
             transform="matrix(1,0,0,-1,80.8,584)"><tspan
               id="tspan120"
               y="0"
               x="0 6 12 18 24 30 36 42 48 54 60 66 72 78 84 90 96 102 108 114 120 126 132 138 144 150 156 162 168 174 180 186 192 198 204 210 216 222">&lt;param name=&quot;LeafScale&quot; value=&quot;0.12&quot;/&gt;</tspan></text>
</g><g
           id="g122"><text
             id="text124"
             style="font-variant:normal;font-weight:normal;font-size:10px;font-family:'Liberation Mono';-inkscape-font-specification:LiberationMono;writing-mode:lr-tb;fill:#000000;fill-opacity:1;fill-rule:nonzero;stroke:none"
             transform="matrix(1,0,0,-1,80.8,572.6)"><tspan
               id="tspan126"
               y="0"
               x="0 6 12 18 24 30 36 42 48 54 60 66 72 78 84 90 96 102 108 114 120 126 132 138 144 150 156 162 168 174 180 186 192 198 204 210 216 222 228">&lt;param name=&quot;LeafScaleX&quot; value=&quot;0.66&quot;/&gt;</tspan></text>
</g><g
           id="g128"><text
             id="text130"
             style="font-variant:normal;font-weight:normal;font-size:10px;font-family:'Liberation Mono';-inkscape-font-specification:LiberationMono;writing-mode:lr-tb;fill:#000000;fill-opacity:1;fill-rule:nonzero;stroke:none"
             transform="matrix(1,0,0,-1,80.8,561.3)"><tspan
               id="tspan132"
               y="0"
               x="0 6 12 18 24 30 36 42 48 54 60 66 72 78 84 90 96 102 108 114 120 126 132 138 144 150 156 162 168 174 180 186 192 198 204 210 216 222 228 234">&lt;param name=&quot;AttractionUp&quot; value=&quot;0.8&quot;/&gt;</tspan></text>
</g><g
           id="g134"><text
             id="text136"
             style="font-variant:normal;font-weight:normal;font-size:10px;font-family:'Liberation Mono';-inkscape-font-specification:LiberationMono;writing-mode:lr-tb;fill:#000000;fill-opacity:1;fill-rule:nonzero;stroke:none"
             transform="matrix(1,0,0,-1,80.8,549.9)"><tspan
               id="tspan138"
               y="0"
               x="0 6 12 18 24 30 36 42 48 54 60 66 72 78 84 90">&lt;!-- level 0 --&gt;</tspan></text>
</g><g
           id="g140"><text
             id="text142"
             style="font-variant:normal;font-weight:normal;font-size:10px;font-family:'Liberation Mono';-inkscape-font-specification:LiberationMono;writing-mode:lr-tb;fill:#000000;fill-opacity:1;fill-rule:nonzero;stroke:none"
             transform="matrix(1,0,0,-1,80.8,538.6)"><tspan
               id="tspan144"
               y="0"
               x="0 6 12 18 24 30 36 42 48 54 60 66 72 78 84 90 96 102 108 114 120 126 132 138 144 150 156 162 168 174 180 186 192 198">&lt;param name=&quot;0Scale&quot; value=&quot;1.0&quot;/&gt;</tspan></text>
</g><g
           id="g146"><text
             id="text148"
             style="font-variant:normal;font-weight:normal;font-size:10px;font-family:'Liberation Mono';-inkscape-font-specification:LiberationMono;writing-mode:lr-tb;fill:#000000;fill-opacity:1;fill-rule:nonzero;stroke:none"
             transform="matrix(1,0,0,-1,80.8,527.2)"><tspan
               id="tspan150"
               y="0"
               x="0 6 12 18 24 30 36 42 48 54 60 66 72 78 84 90 96 102 108 114 120 126 132 138 144 150 156 162 168 174 180 186 192 198 204">&lt;param name=&quot;0ScaleV&quot; value=&quot;0.0&quot;/&gt;</tspan></text>
</g><g
           id="g152"><text
             id="text154"
             style="font-variant:normal;font-weight:normal;font-size:10px;font-family:'Liberation Mono';-inkscape-font-specification:LiberationMono;writing-mode:lr-tb;fill:#000000;fill-opacity:1;fill-rule:nonzero;stroke:none"
             transform="matrix(1,0,0,-1,80.8,515.9)"><tspan
               id="tspan156"
               y="0"
               x="0 6 12 18 24 30 36 42 48 54 60 66 72 78 84 90 96 102 108 114 120 126 132 138 144 150 156 162 168 174 180 186 192 198 204 210 216">&lt;param name=&quot;0BaseSplits&quot; value=&quot;2&quot;/&gt;</tspan></text>
</g><g
           id="g158"><text
             id="text160"
             style="font-variant:normal;font-weight:normal;font-size:10px;font-family:'Liberation Mono';-inkscape-font-specification:LiberationMono;writing-mode:lr-tb;fill:#000000;fill-opacity:1;fill-rule:nonzero;stroke:none"
             transform="matrix(1,0,0,-1,80.8,504.5)"><tspan
               id="tspan162"
               y="0"
               x="0 6 12 18 24 30 36 42 48 54 60 66 72 78 84 90 96 102 108 114 120 126 132 138 144 150 156 162 168 174 180 186 192 198 204">&lt;param name=&quot;0Length&quot; value=&quot;1.0&quot;/&gt;</tspan></text>
</g><g
           id="g164"><text
             id="text166"
             style="font-variant:normal;font-weight:normal;font-size:10px;font-family:'Liberation Mono';-inkscape-font-specification:LiberationMono;writing-mode:lr-tb;fill:#000000;fill-opacity:1;fill-rule:nonzero;stroke:none"
             transform="matrix(1,0,0,-1,80.8,493.2)"><tspan
               id="tspan168"
               y="0"
               x="0 6 12 18 24 30 36 42 48 54 60 66 72 78 84 90 96 102 108 114 120 126 132 138 144 150 156 162 168 174 180 186 192 198">&lt;param name=&quot;0LengthV&quot; value=&quot;0&quot;/&gt;</tspan></text>
</g><g
           id="g170"><text
             id="text172"
             style="font-variant:normal;font-weight:normal;font-size:10px;font-family:'Liberation Mono';-inkscape-font-specification:LiberationMono;writing-mode:lr-tb;fill:#000000;fill-opacity:1;fill-rule:nonzero;stroke:none"
             transform="matrix(1,0,0,-1,80.8,481.8)"><tspan
               id="tspan174"
               y="0"
               x="0 6 12 18 24 30 36 42 48 54 60 66 72 78 84 90 96 102 108 114 120 126 132 138 144 150 156 162 168 174 180 186 192 198 204">&lt;param name=&quot;0Taper&quot; value=&quot;0.95&quot;/&gt;</tspan></text>
</g><g
           id="g176"><text
             id="text178"
             style="font-variant:normal;font-weight:normal;font-size:10px;font-family:'Liberation Mono';-inkscape-font-specification:LiberationMono;writing-mode:lr-tb;fill:#000000;fill-opacity:1;fill-rule:nonzero;stroke:none"
             transform="matrix(1,0,0,-1,80.8,470.5)"><tspan
               id="tspan180"
               y="0"
               x="0 6 12 18 24 30 36 42 48 54 60 66 72 78 84 90 96 102 108 114 120 126 132 138 144 150 156 162 168 174 180 186 192 198 204 210 216 222">&lt;param name=&quot;0SegSplits&quot; value=&quot;0.4&quot;/&gt;</tspan></text>
</g><g
           id="g182"><text
             id="text184"
             style="font-variant:normal;font-weight:normal;font-size:10px;font-family:'Liberation Mono';-inkscape-font-specification:LiberationMono;writing-mode:lr-tb;fill:#000000;fill-opacity:1;fill-rule:nonzero;stroke:none"
             transform="matrix(1,0,0,-1,80.8,459.1)"><tspan
               id="tspan186"
               y="0"
               x="0 6 12 18 24 30 36 42 48 54 60 66 72 78 84 90 96 102 108 114 120 126 132 138 144 150 156 162 168 174 180 186 192 198 204 210 216 222">&lt;param name=&quot;0SplitAngle&quot; value=&quot;10&quot;/&gt;</tspan></text>
</g><g
           id="g188"><text
             id="text190"
             style="font-variant:normal;font-weight:normal;font-size:10px;font-family:'Liberation Mono';-inkscape-font-specification:LiberationMono;writing-mode:lr-tb;fill:#000000;fill-opacity:1;fill-rule:nonzero;stroke:none"
             transform="matrix(1,0,0,-1,80.8,447.8)"><tspan
               id="tspan192"
               y="0"
               x="0 6 12 18 24 30 36 42 48 54 60 66 72 78 84 90 96 102 108 114 120 126 132 138 144 150 156 162 168 174 180 186 192 198 204 210 216 222">&lt;param name=&quot;0SplitAngleV&quot; value=&quot;0&quot;/&gt;</tspan></text>
</g><g
           id="g194"><text
             id="text196"
             style="font-variant:normal;font-weight:normal;font-size:10px;font-family:'Liberation Mono';-inkscape-font-specification:LiberationMono;writing-mode:lr-tb;fill:#000000;fill-opacity:1;fill-rule:nonzero;stroke:none"
             transform="matrix(1,0,0,-1,80.8,436.4)"><tspan
               id="tspan198"
               y="0"
               x="0 6 12 18 24 30 36 42 48 54 60 66 72 78 84 90 96 102 108 114 120 126 132 138 144 150 156 162 168 174 180 186 192 198 204">&lt;param name=&quot;0CurveRes&quot; value=&quot;8&quot;/&gt;</tspan></text>
</g><g
           id="g200"><text
             id="text202"
             style="font-variant:normal;font-weight:normal;font-size:10px;font-family:'Liberation Mono';-inkscape-font-specification:LiberationMono;writing-mode:lr-tb;fill:#000000;fill-opacity:1;fill-rule:nonzero;stroke:none"
             transform="matrix(1,0,0,-1,80.8,425.1)"><tspan
               id="tspan204"
               y="0"
               x="0 6 12 18 24 30 36 42 48 54 60 66 72 78 84 90 96 102 108 114 120 126 132 138 144 150 156 162 168 174 180 186">&lt;param name=&quot;0Curve&quot; value=&quot;0&quot;/&gt;</tspan></text>
</g><g
           id="g206"><text
             id="text208"
             style="font-variant:normal;font-weight:normal;font-size:10px;font-family:'Liberation Mono';-inkscape-font-specification:LiberationMono;writing-mode:lr-tb;fill:#000000;fill-opacity:1;fill-rule:nonzero;stroke:none"
             transform="matrix(1,0,0,-1,80.8,413.7)"><tspan
               id="tspan210"
               y="0"
               x="0 6 12 18 24 30 36 42 48 54 60 66 72 78 84 90 96 102 108 114 120 126 132 138 144 150 156 162 168 174 180 186 192 198">&lt;param name=&quot;0CurveV&quot; value=&quot;90&quot;/&gt;</tspan></text>
</g><g
           id="g212"><text
             id="text214"
             style="font-variant:normal;font-weight:normal;font-size:10px;font-family:'Liberation Mono';-inkscape-font-specification:LiberationMono;writing-mode:lr-tb;fill:#000000;fill-opacity:1;fill-rule:nonzero;stroke:none"
             transform="matrix(1,0,0,-1,80.8,402.4)"><tspan
               id="tspan216"
               y="0"
               x="0 6 12 18 24 30 36 42 48 54 60 66 72 78 84 90 96 102 108 114 120 126 132 138 144 150 156 162 168 174 180 186 192 198 204 210">&lt;param name=&quot;0CurveBack&quot; value=&quot;0&quot;/&gt;</tspan></text>
</g><g
           id="g218"><text
             id="text220"
             style="font-variant:normal;font-weight:normal;font-size:10px;font-family:'Liberation Mono';-inkscape-font-specification:LiberationMono;writing-mode:lr-tb;fill:#000000;fill-opacity:1;fill-rule:nonzero;stroke:none"
             transform="matrix(1,0,0,-1,80.8,391)"><tspan
               id="tspan222"
               y="0"
               x="0 6 12 18 24 30 36 42 48 54 60 66 72 78 84 90">&lt;!-- level 1 --&gt;</tspan></text>
</g><g
           id="g224"><text
             id="text226"
             style="font-variant:normal;font-weight:normal;font-size:10px;font-family:'Liberation Mono';-inkscape-font-specification:LiberationMono;writing-mode:lr-tb;fill:#000000;fill-opacity:1;fill-rule:nonzero;stroke:none"
             transform="matrix(1,0,0,-1,80.8,379.7)"><tspan
               id="tspan228"
               y="0"
               x="0 6 12 18 24 30 36 42 48 54 60 66 72 78 84 90 96 102 108 114 120 126 132 138 144 150 156 162 168 174 180 186 192 198 204 210 216">&lt;param name=&quot;1DownAngle&quot; value=&quot;30&quot;/&gt;</tspan></text>
</g><g
           id="g230"><text
             id="text232"
             style="font-variant:normal;font-weight:normal;font-size:10px;font-family:'Liberation Mono';-inkscape-font-specification:LiberationMono;writing-mode:lr-tb;fill:#000000;fill-opacity:1;fill-rule:nonzero;stroke:none"
             transform="matrix(1,0,0,-1,80.8,368.3)"><tspan
               id="tspan234"
               y="0"
               x="0 6 12 18 24 30 36 42 48 54 60 66 72 78 84 90 96 102 108 114 120 126 132 138 144 150 156 162 168 174 180 186 192 198 204 210 216 222 228">&lt;param name=&quot;1DownAngleV&quot; value=&quot;-30&quot;/&gt;</tspan></text>
</g><g
           id="g236"><text
             id="text238"
             style="font-variant:normal;font-weight:normal;font-size:10px;font-family:'Liberation Mono';-inkscape-font-specification:LiberationMono;writing-mode:lr-tb;fill:#000000;fill-opacity:1;fill-rule:nonzero;stroke:none"
             transform="matrix(1,0,0,-1,80.8,357)"><tspan
               id="tspan240"
               y="0"
               x="0 6 12 18 24 30 36 42 48 54 60 66 72 78 84 90 96 102 108 114 120 126 132 138 144 150 156 162 168 174 180 186 192 198">&lt;param name=&quot;1Rotate&quot; value=&quot;80&quot;/&gt;</tspan></text>
</g><g
           id="g242"><text
             id="text244"
             style="font-variant:normal;font-weight:normal;font-size:10px;font-family:'Liberation Mono';-inkscape-font-specification:LiberationMono;writing-mode:lr-tb;fill:#000000;fill-opacity:1;fill-rule:nonzero;stroke:none"
             transform="matrix(1,0,0,-1,80.8,345.6)"><tspan
               id="tspan246"
               y="0"
               x="0 6 12 18 24 30 36 42 48 54 60 66 72 78 84 90 96 102 108 114 120 126 132 138 144 150 156 162 168 174 180 186 192 198">&lt;param name=&quot;1RotateV&quot; value=&quot;0&quot;/&gt;</tspan></text>
</g><g
           id="g248"><text
             id="text250"
             style="font-variant:normal;font-weight:normal;font-size:10px;font-family:'Liberation Mono';-inkscape-font-specification:LiberationMono;writing-mode:lr-tb;fill:#000000;fill-opacity:1;fill-rule:nonzero;stroke:none"
             transform="matrix(1,0,0,-1,80.8,334.3)"><tspan
               id="tspan252"
               y="0"
               x="0 6 12 18 24 30 36 42 48 54 60 66 72 78 84 90 96 102 108 114 120 126 132 138 144 150 156 162 168 174 180 186 192 198 204 210">&lt;param name=&quot;1Branches&quot; value=&quot;40&quot;/&gt;</tspan></text>
</g><g
           id="g254"><text
             id="text256"
             style="font-variant:normal;font-weight:normal;font-size:10px;font-family:'Liberation Mono';-inkscape-font-specification:LiberationMono;writing-mode:lr-tb;fill:#000000;fill-opacity:1;fill-rule:nonzero;stroke:none"
             transform="matrix(1,0,0,-1,80.8,322.9)"><tspan
               id="tspan258"
               y="0"
               x="0 6 12 18 24 30 36 42 48 54 60 66 72 78 84 90 96 102 108 114 120 126 132 138 144 150 156 162 168 174 180 186 192 198 204">&lt;param name=&quot;1Length&quot; value=&quot;0.8&quot;/&gt;</tspan></text>
</g><g
           id="g260"><text
             id="text262"
             style="font-variant:normal;font-weight:normal;font-size:10px;font-family:'Liberation Mono';-inkscape-font-specification:LiberationMono;writing-mode:lr-tb;fill:#000000;fill-opacity:1;fill-rule:nonzero;stroke:none"
             transform="matrix(1,0,0,-1,80.8,311.6)"><tspan
               id="tspan264"
               y="0"
               x="0 6 12 18 24 30 36 42 48 54 60 66 72 78 84 90 96 102 108 114 120 126 132 138 144 150 156 162 168 174 180 186 192 198 204 210">&lt;param name=&quot;1LengthV&quot; value=&quot;0.1&quot;/&gt;</tspan></text>
</g><g
           id="g266"><text
             id="text268"
             style="font-variant:normal;font-weight:normal;font-size:10px;font-family:'Liberation Mono';-inkscape-font-specification:LiberationMono;writing-mode:lr-tb;fill:#000000;fill-opacity:1;fill-rule:nonzero;stroke:none"
             transform="matrix(1,0,0,-1,80.8,300.2)"><tspan
               id="tspan270"
               y="0"
               x="0 6 12 18 24 30 36 42 48 54 60 66 72 78 84 90 96 102 108 114 120 126 132 138 144 150 156 162 168 174 180 186 192 198">&lt;param name=&quot;1Taper&quot; value=&quot;1.0&quot;/&gt;</tspan></text>
</g><g
           id="g272"><text
             id="text274"
             style="font-variant:normal;font-weight:normal;font-size:10px;font-family:'Liberation Mono';-inkscape-font-specification:LiberationMono;writing-mode:lr-tb;fill:#000000;fill-opacity:1;fill-rule:nonzero;stroke:none"
             transform="matrix(1,0,0,-1,80.8,288.9)"><tspan
               id="tspan276"
               y="0"
               x="0 6 12 18 24 30 36 42 48 54 60 66 72 78 84 90 96 102 108 114 120 126 132 138 144 150 156 162 168 174 180 186 192 198 204 210 216 222">&lt;param name=&quot;1SegSplits&quot; value=&quot;0.2&quot;/&gt;</tspan></text>
</g><g
           id="g278"><text
             id="text280"
             style="font-variant:normal;font-weight:normal;font-size:10px;font-family:'Liberation Mono';-inkscape-font-specification:LiberationMono;writing-mode:lr-tb;fill:#000000;fill-opacity:1;fill-rule:nonzero;stroke:none"
             transform="matrix(1,0,0,-1,80.8,277.5)"><tspan
               id="tspan282"
               y="0"
               x="0 6 12 18 24 30 36 42 48 54 60 66 72 78 84 90 96 102 108 114 120 126 132 138 144 150 156 162 168 174 180 186 192 198 204 210 216 222">&lt;param name=&quot;1SplitAngle&quot; value=&quot;10&quot;/&gt;</tspan></text>
</g><g
           id="g284"><text
             id="text286"
             style="font-variant:normal;font-weight:normal;font-size:10px;font-family:'Liberation Mono';-inkscape-font-specification:LiberationMono;writing-mode:lr-tb;fill:#000000;fill-opacity:1;fill-rule:nonzero;stroke:none"
             transform="matrix(1,0,0,-1,80.8,266.2)"><tspan
               id="tspan288"
               y="0"
               x="0 6 12 18 24 30 36 42 48 54 60 66 72 78 84 90 96 102 108 114 120 126 132 138 144 150 156 162 168 174 180 186 192 198 204 210 216 222 228">&lt;param name=&quot;1SplitAngleV&quot; value=&quot;10&quot;/&gt;</tspan></text>
</g><g
           id="g290"><text
             id="text292"
             style="font-variant:normal;font-weight:normal;font-size:10px;font-family:'Liberation Mono';-inkscape-font-specification:LiberationMono;writing-mode:lr-tb;fill:#000000;fill-opacity:1;fill-rule:nonzero;stroke:none"
             transform="matrix(1,0,0,-1,80.8,254.8)"><tspan
               id="tspan294"
               y="0"
               x="0 6 12 18 24 30 36 42 48 54 60 66 72 78 84 90 96 102 108 114 120 126 132 138 144 150 156 162 168 174 180 186 192 198 204 210">&lt;param name=&quot;1CurveRes&quot; value=&quot;10&quot;/&gt;</tspan></text>
</g><g
           id="g296"><text
             id="text298"
             style="font-variant:normal;font-weight:normal;font-size:10px;font-family:'Liberation Mono';-inkscape-font-specification:LiberationMono;writing-mode:lr-tb;fill:#000000;fill-opacity:1;fill-rule:nonzero;stroke:none"
             transform="matrix(1,0,0,-1,80.8,243.5)"><tspan
               id="tspan300"
               y="0"
               x="0 6 12 18 24 30 36 42 48 54 60 66 72 78 84 90 96 102 108 114 120 126 132 138 144 150 156 162 168 174 180 186 192">&lt;param name=&quot;1Curve&quot; value=&quot;40&quot;/&gt;</tspan></text>
</g><g
           id="g302"><text
             id="text304"
             style="font-variant:normal;font-weight:normal;font-size:10px;font-family:'Liberation Mono';-inkscape-font-specification:LiberationMono;writing-mode:lr-tb;fill:#000000;fill-opacity:1;fill-rule:nonzero;stroke:none"
             transform="matrix(1,0,0,-1,80.8,232.1)"><tspan
               id="tspan306"
               y="0"
               x="0 6 12 18 24 30 36 42 48 54 60 66 72 78 84 90 96 102 108 114 120 126 132 138 144 150 156 162 168 174 180 186 192 198 204">&lt;param name=&quot;1CurveV&quot; value=&quot;150&quot;/&gt;</tspan></text>
</g><g
           id="g308"><text
             id="text310"
             style="font-variant:normal;font-weight:normal;font-size:10px;font-family:'Liberation Mono';-inkscape-font-specification:LiberationMono;writing-mode:lr-tb;fill:#000000;fill-opacity:1;fill-rule:nonzero;stroke:none"
             transform="matrix(1,0,0,-1,80.8,220.8)"><tspan
               id="tspan312"
               y="0"
               x="0 6 12 18 24 30 36 42 48 54 60 66 72 78 84 90 96 102 108 114 120 126 132 138 144 150 156 162 168 174 180 186 192 198 204 210 216 222">&lt;param name=&quot;1CurveBack&quot; value=&quot;-70&quot;/&gt;</tspan></text>
</g><g
           id="g314"><text
             id="text316"
             style="font-variant:normal;font-weight:normal;font-size:10px;font-family:'Liberation Mono';-inkscape-font-specification:LiberationMono;writing-mode:lr-tb;fill:#000000;fill-opacity:1;fill-rule:nonzero;stroke:none"
             transform="matrix(1,0,0,-1,80.8,209.4)"><tspan
               id="tspan318"
               y="0"
               x="0 6 12 18 24 30 36 42 48 54 60 66 72 78 84 90">&lt;!-- level 2 --&gt;</tspan></text>
</g><g
           id="g320"><text
             id="text322"
             style="font-variant:normal;font-weight:normal;font-size:10px;font-family:'Liberation Mono';-inkscape-font-specification:LiberationMono;writing-mode:lr-tb;fill:#000000;fill-opacity:1;fill-rule:nonzero;stroke:none"
             transform="matrix(1,0,0,-1,80.8,198.1)"><tspan
               id="tspan324"
               y="0"
               x="0 6 12 18 24 30 36 42 48 54 60 66 72 78 84 90 96 102 108 114 120 126 132 138 144 150 156 162 168 174 180 186 192 198 204 210 216">&lt;param name=&quot;2DownAngle&quot; value=&quot;45&quot;/&gt;</tspan></text>
</g><g
           id="g326"><text
             id="text328"
             style="font-variant:normal;font-weight:normal;font-size:10px;font-family:'Liberation Mono';-inkscape-font-specification:LiberationMono;writing-mode:lr-tb;fill:#000000;fill-opacity:1;fill-rule:nonzero;stroke:none"
             transform="matrix(1,0,0,-1,80.8,186.7)"><tspan
               id="tspan330"
               y="0"
               x="0 6 12 18 24 30 36 42 48 54 60 66 72 78 84 90 96 102 108 114 120 126 132 138 144 150 156 162 168 174 180 186 192 198 204 210 216 222">&lt;param name=&quot;2DownAngleV&quot; value=&quot;10&quot;/&gt;</tspan></text>
</g><g
           id="g332"><text
             id="text334"
             style="font-variant:normal;font-weight:normal;font-size:10px;font-family:'Liberation Mono';-inkscape-font-specification:LiberationMono;writing-mode:lr-tb;fill:#000000;fill-opacity:1;fill-rule:nonzero;stroke:none"
             transform="matrix(1,0,0,-1,80.8,175.4)"><tspan
               id="tspan336"
               y="0"
               x="0 6 12 18 24 30 36 42 48 54 60 66 72 78 84 90 96 102 108 114 120 126 132 138 144 150 156 162 168 174 180 186 192 198 204">&lt;param name=&quot;2Rotate&quot; value=&quot;140&quot;/&gt;</tspan></text>
</g><g
           id="g338"><text
             id="text340"
             style="font-variant:normal;font-weight:normal;font-size:10px;font-family:'Liberation Mono';-inkscape-font-specification:LiberationMono;writing-mode:lr-tb;fill:#000000;fill-opacity:1;fill-rule:nonzero;stroke:none"
             transform="matrix(1,0,0,-1,80.8,164)"><tspan
               id="tspan342"
               y="0"
               x="0 6 12 18 24 30 36 42 48 54 60 66 72 78 84 90 96 102 108 114 120 126 132 138 144 150 156 162 168 174 180 186 192 198">&lt;param name=&quot;2RotateV&quot; value=&quot;0&quot;/&gt;</tspan></text>
</g><g
           id="g344"><text
             id="text346"
             style="font-variant:normal;font-weight:normal;font-size:10px;font-family:'Liberation Mono';-inkscape-font-specification:LiberationMono;writing-mode:lr-tb;fill:#000000;fill-opacity:1;fill-rule:nonzero;stroke:none"
             transform="matrix(1,0,0,-1,80.8,152.7)"><tspan
               id="tspan348"
               y="0"
               x="0 6 12 18 24 30 36 42 48 54 60 66 72 78 84 90 96 102 108 114 120 126 132 138 144 150 156 162 168 174 180 186 192 198 204 210 216">&lt;param name=&quot;2Branches&quot; value=&quot;120&quot;/&gt;</tspan></text>
</g><g
           id="g350"><text
             id="text352"
             style="font-variant:normal;font-weight:normal;font-size:10px;font-family:'Liberation Mono';-inkscape-font-specification:LiberationMono;writing-mode:lr-tb;fill:#000000;fill-opacity:1;fill-rule:nonzero;stroke:none"
             transform="matrix(1,0,0,-1,80.8,141.3)"><tspan
               id="tspan354"
               y="0"
               x="0 6 12 18 24 30 36 42 48 54 60 66 72 78 84 90 96 102 108 114 120 126 132 138 144 150 156 162 168 174 180 186 192 198 204">&lt;param name=&quot;2Length&quot; value=&quot;0.2&quot;/&gt;</tspan></text>
</g><g
           id="g356"><text
             id="text358"
             style="font-variant:normal;font-weight:normal;font-size:10px;font-family:'Liberation Mono';-inkscape-font-specification:LiberationMono;writing-mode:lr-tb;fill:#000000;fill-opacity:1;fill-rule:nonzero;stroke:none"
             transform="matrix(1,0,0,-1,80.8,130)"><tspan
               id="tspan360"
               y="0"
               x="0 6 12 18 24 30 36 42 48 54 60 66 72 78 84 90 96 102 108 114 120 126 132 138 144 150 156 162 168 174 180 186 192 198 204 210 216">&lt;param name=&quot;2LengthV&quot; value=&quot;0.05&quot;/&gt;</tspan></text>
</g><g
           id="g362"><text
             id="text364"
             style="font-variant:normal;font-weight:normal;font-size:10px;font-family:'Liberation Mono';-inkscape-font-specification:LiberationMono;writing-mode:lr-tb;fill:#000000;fill-opacity:1;fill-rule:nonzero;stroke:none"
             transform="matrix(1,0,0,-1,80.8,118.6)"><tspan
               id="tspan366"
               y="0"
               x="0 6 12 18 24 30 36 42 48 54 60 66 72 78 84 90 96 102 108 114 120 126 132 138 144 150 156 162 168 174 180 186 192 198 204">&lt;param name=&quot;2Taper&quot; value=&quot;0.05&quot;/&gt;</tspan></text>
</g><g
           id="g368"><text
             id="text370"
             style="font-variant:normal;font-weight:normal;font-size:10px;font-family:'Liberation Mono';-inkscape-font-specification:LiberationMono;writing-mode:lr-tb;fill:#000000;fill-opacity:1;fill-rule:nonzero;stroke:none"
             transform="matrix(1,0,0,-1,80.8,107.3)"><tspan
               id="tspan372"
               y="0"
               x="0 6 12 18 24 30 36 42 48 54 60 66 72 78 84 90 96 102 108 114 120 126 132 138 144 150 156 162 168 174 180 186 192 198 204 210 216 222">&lt;param name=&quot;2SegSplits&quot; value=&quot;0.1&quot;/&gt;</tspan></text>
</g><g
           id="g374"><text
             id="text376"
             style="font-variant:normal;font-weight:normal;font-size:10px;font-family:'Liberation Mono';-inkscape-font-specification:LiberationMono;writing-mode:lr-tb;fill:#000000;fill-opacity:1;fill-rule:nonzero;stroke:none"
             transform="matrix(1,0,0,-1,80.8,95.9)"><tspan
               id="tspan378"
               y="0"
               x="0 6 12 18 24 30 36 42 48 54 60 66 72 78 84 90 96 102 108 114 120 126 132 138 144 150 156 162 168 174 180 186 192 198 204 210 216 222">&lt;param name=&quot;2SplitAngle&quot; value=&quot;10&quot;/&gt;</tspan></text>
</g><g
           id="g380"><text
             id="text382"
             style="font-variant:normal;font-weight:normal;font-size:10px;font-family:'Liberation Mono';-inkscape-font-specification:LiberationMono;writing-mode:lr-tb;fill:#000000;fill-opacity:1;fill-rule:nonzero;stroke:none"
             transform="matrix(1,0,0,-1,80.8,84.6)"><tspan
               id="tspan384"
               y="0"
               x="0 6 12 18 24 30 36 42 48 54 60 66 72 78 84 90 96 102 108 114 120 126 132 138 144 150 156 162 168 174 180 186 192 198 204 210 216 222 228">&lt;param name=&quot;2SplitAngleV&quot; value=&quot;10&quot;/&gt;</tspan></text>
</g><g
           id="g386"><text
             id="text388"
             style="font-variant:normal;font-weight:normal;font-size:10px;font-family:'Liberation Mono';-inkscape-font-specification:LiberationMono;writing-mode:lr-tb;fill:#000000;fill-opacity:1;fill-rule:nonzero;stroke:none"
             transform="matrix(1,0,0,-1,80.8,73.2)"><tspan
               id="tspan390"
               y="0"
               x="0 6 12 18 24 30 36 42 48 54 60 66 72 78 84 90 96 102 108 114 120 126 132 138 144 150 156 162 168 174 180 186 192 198 204">&lt;param name=&quot;2CurveRes&quot; value=&quot;3&quot;/&gt;</tspan></text>
</g><g
           id="g392"><text
             id="text394"
             style="font-variant:normal;font-weight:normal;font-size:10px;font-family:'Liberation Mono';-inkscape-font-specification:LiberationMono;writing-mode:lr-tb;fill:#000000;fill-opacity:1;fill-rule:nonzero;stroke:none"
             transform="matrix(1,0,0,-1,80.8,61.9)"><tspan
               id="tspan396"
               y="0"
               x="0 6 12 18 24 30 36 42 48 54 60 66 72 78 84 90 96 102 108 114 120 126 132 138 144 150 156 162 168 174 180 186 192 198">&lt;param name=&quot;2Curve&quot; value=&quot;-40&quot;/&gt;</tspan></text>
</g></g></g></g></svg>