<?xml version="1.0" encoding="UTF-8" standalone="no"?>
<svg
   xmlns:dc="http://purl.org/dc/elements/1.1/"
   xmlns:cc="http://creativecommons.org/ns#"
   xmlns:rdf="http://www.w3.org/1999/02/22-rdf-syntax-ns#"
   xmlns:svg="http://www.w3.org/2000/svg"
   xmlns="http://www.w3.org/2000/svg"
   viewBox="0 0 743.75 1052.5"
   height="1052.5"
   width="743.75"
   xml:space="preserve"
   version="1.1"
   id="svg2"><metadata
     id="metadata8"><rdf:RDF><cc:Work
         rdf:about=""><dc:format>image/svg+xml</dc:format><dc:type
           rdf:resource="http://purl.org/dc/dcmitype/StillImage" /></cc:Work></rdf:RDF></metadata><defs
     id="defs6"><clipPath
       id="clipPath16"
       clipPathUnits="userSpaceOnUse"><path
         style="clip-rule:evenodd"
         id="path18"
         d="m 0,0.1 595.2,0 0,841.8 L 0,841.9 0,0.1 Z" /></clipPath></defs><g
     transform="matrix(1.25,0,0,-1.25,0,1052.5)"
     id="g10"><g
       id="g12"><g
         clip-path="url(#clipPath16)"
         id="g14"><g
           id="g20"><text
             id="text22"
             style="font-variant:normal;font-weight:normal;font-size:10px;font-family:'Liberation Mono';-inkscape-font-specification:LiberationMono;writing-mode:lr-tb;fill:#000000;fill-opacity:1;fill-rule:nonzero;stroke:none"
             transform="matrix(1,0,0,-1,56.8,776.9)"><tspan
               id="tspan24"
               y="0"
               x="0 6 12 18 24 30 36 42 48 54 60 66 72 78 84 90 96 102 108 114 120 126">&lt;?xml version=&quot;1.0&quot; ?&gt;</tspan></text>
</g><g
           id="g26" /><g
           id="g28"><text
             id="text30"
             style="font-variant:normal;font-weight:normal;font-size:10px;font-family:'Liberation Mono';-inkscape-font-specification:LiberationMono;writing-mode:lr-tb;fill:#000000;fill-opacity:1;fill-rule:nonzero;stroke:none"
             transform="matrix(1,0,0,-1,56.8,754.2)"><tspan
               id="tspan32"
               y="0"
               x="0 6 12 18 24 30 36 42">&lt;arbaro&gt;</tspan></text>
</g><g
           id="g34"><text
             id="text36"
             style="font-variant:normal;font-weight:normal;font-size:10px;font-family:'Liberation Mono';-inkscape-font-specification:LiberationMono;writing-mode:lr-tb;fill:#000000;fill-opacity:1;fill-rule:nonzero;stroke:none"
             transform="matrix(1,0,0,-1,68.8,742.9)"><tspan
               id="tspan38"
               y="0"
               x="0 6 12 18 24 30 36 42 48 54 60 66 72 78 84 90 96 102 108 114 120 126 132 138 144">&lt;species name=&quot;tamarack&quot;&gt;</tspan></text>
</g><g
           id="g40"><text
             id="text42"
             style="font-variant:normal;font-weight:normal;font-size:10px;font-family:'Liberation Mono';-inkscape-font-specification:LiberationMono;writing-mode:lr-tb;fill:#000000;fill-opacity:1;fill-rule:nonzero;stroke:none"
             transform="matrix(1,0,0,-1,80.8,731.5)"><tspan
               id="tspan44"
               y="0"
               x="0 6 12 18 24 30 36 42 48 54 60 66 72 78 84 90 96 102 108 114 120 126 132">&lt;!-- general params --&gt;</tspan></text>
</g><g
           id="g46"><text
             id="text48"
             style="font-variant:normal;font-weight:normal;font-size:10px;font-family:'Liberation Mono';-inkscape-font-specification:LiberationMono;writing-mode:lr-tb;fill:#000000;fill-opacity:1;fill-rule:nonzero;stroke:none"
             transform="matrix(1,0,0,-1,80.8,720.2)"><tspan
               id="tspan50"
               y="0"
               x="0 6 12 18 24 30 36 42 48 54 60 66 72 78 84 90 96 102 108 114 120 126 132 138 144 150 156 162 168 174 180">&lt;param name=&quot;Shape&quot; value=&quot;0&quot;/&gt;</tspan></text>
</g><g
           id="g52"><text
             id="text54"
             style="font-variant:normal;font-weight:normal;font-size:10px;font-family:'Liberation Mono';-inkscape-font-specification:LiberationMono;writing-mode:lr-tb;fill:#000000;fill-opacity:1;fill-rule:nonzero;stroke:none"
             transform="matrix(1,0,0,-1,80.8,708.8)"><tspan
               id="tspan56"
               y="0"
               x="0 6 12 18 24 30 36 42 48 54 60 66 72 78 84 90 96 102 108 114 120 126 132 138 144 150 156 162 168 174 180 186 192 198 204 210">&lt;param name=&quot;BaseSize&quot; value=&quot;0.1&quot;/&gt;</tspan></text>
</g><g
           id="g58"><text
             id="text60"
             style="font-variant:normal;font-weight:normal;font-size:10px;font-family:'Liberation Mono';-inkscape-font-specification:LiberationMono;writing-mode:lr-tb;fill:#000000;fill-opacity:1;fill-rule:nonzero;stroke:none"
             transform="matrix(1,0,0,-1,80.8,697.5)"><tspan
               id="tspan62"
               y="0"
               x="0 6 12 18 24 30 36 42 48 54 60 66 72 78 84 90 96 102 108 114 120 126 132 138 144 150 156 162 168 174 180 186 192 198">&lt;param name=&quot;Scale&quot; value=&quot;22.0&quot;/&gt;</tspan></text>
</g><g
           id="g64"><text
             id="text66"
             style="font-variant:normal;font-weight:normal;font-size:10px;font-family:'Liberation Mono';-inkscape-font-specification:LiberationMono;writing-mode:lr-tb;fill:#000000;fill-opacity:1;fill-rule:nonzero;stroke:none"
             transform="matrix(1,0,0,-1,80.8,686.1)"><tspan
               id="tspan68"
               y="0"
               x="0 6 12 18 24 30 36 42 48 54 60 66 72 78 84 90 96 102 108 114 120 126 132 138 144 150 156 162 168 174 180 186 192 198">&lt;param name=&quot;ScaleV&quot; value=&quot;3.0&quot;/&gt;</tspan></text>
</g><g
           id="g70"><text
             id="text72"
             style="font-variant:normal;font-weight:normal;font-size:10px;font-family:'Liberation Mono';-inkscape-font-specification:LiberationMono;writing-mode:lr-tb;fill:#000000;fill-opacity:1;fill-rule:nonzero;stroke:none"
             transform="matrix(1,0,0,-1,80.8,674.8)"><tspan
               id="tspan74"
               y="0"
               x="0 6 12 18 24 30 36 42 48 54 60 66 72 78 84 90 96 102 108 114 120 126 132 138 144 150 156 162 168 174 180 186">&lt;param name=&quot;Levels&quot; value=&quot;3&quot;/&gt;</tspan></text>
</g><g
           id="g76"><text
             id="text78"
             style="font-variant:normal;font-weight:normal;font-size:10px;font-family:'Liberation Mono';-inkscape-font-specification:LiberationMono;writing-mode:lr-tb;fill:#000000;fill-opacity:1;fill-rule:nonzero;stroke:none"
             transform="matrix(1,0,0,-1,80.8,663.4)"><tspan
               id="tspan80"
               y="0"
               x="0 6 12 18 24 30 36 42 48 54 60 66 72 78 84 90 96 102 108 114 120 126 132 138 144 150 156 162 168 174 180 186 192 198 204">&lt;param name=&quot;Ratio&quot; value=&quot;0.015&quot;/&gt;</tspan></text>
</g><g
           id="g82"><text
             id="text84"
             style="font-variant:normal;font-weight:normal;font-size:10px;font-family:'Liberation Mono';-inkscape-font-specification:LiberationMono;writing-mode:lr-tb;fill:#000000;fill-opacity:1;fill-rule:nonzero;stroke:none"
             transform="matrix(1,0,0,-1,80.8,652.1)"><tspan
               id="tspan86"
               y="0"
               x="0 6 12 18 24 30 36 42 48 54 60 66 72 78 84 90 96 102 108 114 120 126 132 138 144 150 156 162 168 174 180 186 192 198 204 210 216 222">&lt;param name=&quot;RatioPower&quot; value=&quot;1.3&quot;/&gt;</tspan></text>
</g><g
           id="g88"><text
             id="text90"
             style="font-variant:normal;font-weight:normal;font-size:10px;font-family:'Liberation Mono';-inkscape-font-specification:LiberationMono;writing-mode:lr-tb;fill:#000000;fill-opacity:1;fill-rule:nonzero;stroke:none"
             transform="matrix(1,0,0,-1,80.8,640.7)"><tspan
               id="tspan92"
               y="0"
               x="0 6 12 18 24 30 36 42 48 54 60 66 72 78 84 90 96 102 108 114 120 126 132 138 144 150 156 162 168 174 180 186 192">&lt;param name=&quot;Flare&quot; value=&quot;0.4&quot;/&gt;</tspan></text>
</g><g
           id="g94"><text
             id="text96"
             style="font-variant:normal;font-weight:normal;font-size:10px;font-family:'Liberation Mono';-inkscape-font-specification:LiberationMono;writing-mode:lr-tb;fill:#000000;fill-opacity:1;fill-rule:nonzero;stroke:none"
             transform="matrix(1,0,0,-1,80.8,629.4)"><tspan
               id="tspan98"
               y="0"
               x="0 6 12 18 24 30 36 42 48 54 60 66 72 78 84 90 96 102 108 114 120 126 132 138 144 150 156 162 168 174 180 186 192">&lt;param name=&quot;Leaves&quot; value=&quot;50&quot;/&gt;</tspan></text>
</g><g
           id="g100"><text
             id="text102"
             style="font-variant:normal;font-weight:normal;font-size:10px;font-family:'Liberation Mono';-inkscape-font-specification:LiberationMono;writing-mode:lr-tb;fill:#000000;fill-opacity:1;fill-rule:nonzero;stroke:none"
             transform="matrix(1,0,0,-1,80.8,618)"><tspan
               id="tspan104"
               y="0"
               x="0 6 12 18 24 30 36 42 48 54 60 66 72 78 84 90 96 102 108 114 120 126 132 138 144 150 156 162 168 174 180 186 192 198 204">&lt;param name=&quot;LeafShape&quot; value=&quot;0&quot;/&gt;</tspan></text>
</g><g
           id="g106"><text
             id="text108"
             style="font-variant:normal;font-weight:normal;font-size:10px;font-family:'Liberation Mono';-inkscape-font-specification:LiberationMono;writing-mode:lr-tb;fill:#000000;fill-opacity:1;fill-rule:nonzero;stroke:none"
             transform="matrix(1,0,0,-1,80.8,606.7)"><tspan
               id="tspan110"
               y="0"
               x="0 6 12 18 24 30 36 42 48 54 60 66 72 78 84 90 96 102 108 114 120 126 132 138 144 150 156 162 168 174 180 186 192 198 204 210 216 222">&lt;param name=&quot;LeafScale&quot; value=&quot;0.15&quot;/&gt;</tspan></text>
</g><g
           id="g112"><text
             id="text114"
             style="font-variant:normal;font-weight:normal;font-size:10px;font-family:'Liberation Mono';-inkscape-font-specification:LiberationMono;writing-mode:lr-tb;fill:#000000;fill-opacity:1;fill-rule:nonzero;stroke:none"
             transform="matrix(1,0,0,-1,80.8,595.3)"><tspan
               id="tspan116"
               y="0"
               x="0 6 12 18 24 30 36 42 48 54 60 66 72 78 84 90 96 102 108 114 120 126 132 138 144 150 156 162 168 174 180 186 192 198 204 210 216 222 228">&lt;param name=&quot;LeafScaleX&quot; value=&quot;0.35&quot;/&gt;</tspan></text>
</g><g
           id="g118"><text
             id="text120"
             style="font-variant:normal;font-weight:normal;font-size:10px;font-family:'Liberation Mono';-inkscape-font-specification:LiberationMono;writing-mode:lr-tb;fill:#000000;fill-opacity:1;fill-rule:nonzero;stroke:none"
             transform="matrix(1,0,0,-1,80.8,584)"><tspan
               id="tspan122"
               y="0"
               x="0 6 12 18 24 30 36 42 48 54 60 66 72 78 84 90 96 102 108 114 120 126 132 138 144 150 156 162 168 174 180 186 192 198 204 210 216 222 228">&lt;param name=&quot;LeafStemLen&quot; value=&quot;0.5&quot;/&gt;</tspan></text>
</g><g
           id="g124"><text
             id="text126"
             style="font-variant:normal;font-weight:normal;font-size:10px;font-family:'Liberation Mono';-inkscape-font-specification:LiberationMono;writing-mode:lr-tb;fill:#000000;fill-opacity:1;fill-rule:nonzero;stroke:none"
             transform="matrix(1,0,0,-1,80.8,572.6)"><tspan
               id="tspan128"
               y="0"
               x="0 6 12 18 24 30 36 42 48 54 60 66 72 78 84 90 96 102 108 114 120 126 132 138 144 150 156 162 168 174 180 186 192 198 204 210">&lt;param name=&quot;LeafBend&quot; value=&quot;0.5&quot;/&gt;</tspan></text>
</g><g
           id="g130"><text
             id="text132"
             style="font-variant:normal;font-weight:normal;font-size:10px;font-family:'Liberation Mono';-inkscape-font-specification:LiberationMono;writing-mode:lr-tb;fill:#000000;fill-opacity:1;fill-rule:nonzero;stroke:none"
             transform="matrix(1,0,0,-1,80.8,561.3)"><tspan
               id="tspan134"
               y="0"
               x="0 6 12 18 24 30 36 42 48 54 60 66 72 78 84 90 96 102 108 114 120 126 132 138 144 150 156 162 168 174 180 186 192 198 204 210 216 222 228 234">&lt;param name=&quot;AttractionUp&quot; value=&quot;0.5&quot;/&gt;</tspan></text>
</g><g
           id="g136"><text
             id="text138"
             style="font-variant:normal;font-weight:normal;font-size:10px;font-family:'Liberation Mono';-inkscape-font-specification:LiberationMono;writing-mode:lr-tb;fill:#000000;fill-opacity:1;fill-rule:nonzero;stroke:none"
             transform="matrix(1,0,0,-1,80.8,549.9)"><tspan
               id="tspan140"
               y="0"
               x="0 6 12 18 24 30 36 42 48 54 60 66 72 78 84 90">&lt;!-- level 0 --&gt;</tspan></text>
</g><g
           id="g142"><text
             id="text144"
             style="font-variant:normal;font-weight:normal;font-size:10px;font-family:'Liberation Mono';-inkscape-font-specification:LiberationMono;writing-mode:lr-tb;fill:#000000;fill-opacity:1;fill-rule:nonzero;stroke:none"
             transform="matrix(1,0,0,-1,80.8,538.6)"><tspan
               id="tspan146"
               y="0"
               x="0 6 12 18 24 30 36 42 48 54 60 66 72 78 84 90 96 102 108 114 120 126 132 138 144 150 156 162 168 174 180 186 192 198">&lt;param name=&quot;0Scale&quot; value=&quot;1.0&quot;/&gt;</tspan></text>
</g><g
           id="g148"><text
             id="text150"
             style="font-variant:normal;font-weight:normal;font-size:10px;font-family:'Liberation Mono';-inkscape-font-specification:LiberationMono;writing-mode:lr-tb;fill:#000000;fill-opacity:1;fill-rule:nonzero;stroke:none"
             transform="matrix(1,0,0,-1,80.8,527.2)"><tspan
               id="tspan152"
               y="0"
               x="0 6 12 18 24 30 36 42 48 54 60 66 72 78 84 90 96 102 108 114 120 126 132 138 144 150 156 162 168 174 180 186 192 198 204">&lt;param name=&quot;0ScaleV&quot; value=&quot;0.0&quot;/&gt;</tspan></text>
</g><g
           id="g154"><text
             id="text156"
             style="font-variant:normal;font-weight:normal;font-size:10px;font-family:'Liberation Mono';-inkscape-font-specification:LiberationMono;writing-mode:lr-tb;fill:#000000;fill-opacity:1;fill-rule:nonzero;stroke:none"
             transform="matrix(1,0,0,-1,80.8,515.9)"><tspan
               id="tspan158"
               y="0"
               x="0 6 12 18 24 30 36 42 48 54 60 66 72 78 84 90 96 102 108 114 120 126 132 138 144 150 156 162 168 174 180 186 192 198 204 210 216">&lt;param name=&quot;0BaseSplits&quot; value=&quot;0&quot;/&gt;</tspan></text>
</g><g
           id="g160"><text
             id="text162"
             style="font-variant:normal;font-weight:normal;font-size:10px;font-family:'Liberation Mono';-inkscape-font-specification:LiberationMono;writing-mode:lr-tb;fill:#000000;fill-opacity:1;fill-rule:nonzero;stroke:none"
             transform="matrix(1,0,0,-1,80.8,504.5)"><tspan
               id="tspan164"
               y="0"
               x="0 6 12 18 24 30 36 42 48 54 60 66 72 78 84 90 96 102 108 114 120 126 132 138 144 150 156 162 168 174 180 186 192 198 204">&lt;param name=&quot;0Length&quot; value=&quot;1.0&quot;/&gt;</tspan></text>
</g><g
           id="g166"><text
             id="text168"
             style="font-variant:normal;font-weight:normal;font-size:10px;font-family:'Liberation Mono';-inkscape-font-specification:LiberationMono;writing-mode:lr-tb;fill:#000000;fill-opacity:1;fill-rule:nonzero;stroke:none"
             transform="matrix(1,0,0,-1,80.8,493.2)"><tspan
               id="tspan170"
               y="0"
               x="0 6 12 18 24 30 36 42 48 54 60 66 72 78 84 90 96 102 108 114 120 126 132 138 144 150 156 162 168 174 180 186 192 198 204 210">&lt;param name=&quot;0LengthV&quot; value=&quot;0.0&quot;/&gt;</tspan></text>
</g><g
           id="g172"><text
             id="text174"
             style="font-variant:normal;font-weight:normal;font-size:10px;font-family:'Liberation Mono';-inkscape-font-specification:LiberationMono;writing-mode:lr-tb;fill:#000000;fill-opacity:1;fill-rule:nonzero;stroke:none"
             transform="matrix(1,0,0,-1,80.8,481.8)"><tspan
               id="tspan176"
               y="0"
               x="0 6 12 18 24 30 36 42 48 54 60 66 72 78 84 90 96 102 108 114 120 126 132 138 144 150 156 162 168 174 180 186 192 198">&lt;param name=&quot;0Taper&quot; value=&quot;0.9&quot;/&gt;</tspan></text>
</g><g
           id="g178"><text
             id="text180"
             style="font-variant:normal;font-weight:normal;font-size:10px;font-family:'Liberation Mono';-inkscape-font-specification:LiberationMono;writing-mode:lr-tb;fill:#000000;fill-opacity:1;fill-rule:nonzero;stroke:none"
             transform="matrix(1,0,0,-1,80.8,470.5)"><tspan
               id="tspan182"
               y="0"
               x="0 6 12 18 24 30 36 42 48 54 60 66 72 78 84 90 96 102 108 114 120 126 132 138 144 150 156 162 168 174 180 186 192 198 204 210 216 222">&lt;param name=&quot;0SegSplits&quot; value=&quot;0.0&quot;/&gt;</tspan></text>
</g><g
           id="g184"><text
             id="text186"
             style="font-variant:normal;font-weight:normal;font-size:10px;font-family:'Liberation Mono';-inkscape-font-specification:LiberationMono;writing-mode:lr-tb;fill:#000000;fill-opacity:1;fill-rule:nonzero;stroke:none"
             transform="matrix(1,0,0,-1,80.8,459.1)"><tspan
               id="tspan188"
               y="0"
               x="0 6 12 18 24 30 36 42 48 54 60 66 72 78 84 90 96 102 108 114 120 126 132 138 144 150 156 162 168 174 180 186 192 198 204">&lt;param name=&quot;0CurveRes&quot; value=&quot;8&quot;/&gt;</tspan></text>
</g><g
           id="g190"><text
             id="text192"
             style="font-variant:normal;font-weight:normal;font-size:10px;font-family:'Liberation Mono';-inkscape-font-specification:LiberationMono;writing-mode:lr-tb;fill:#000000;fill-opacity:1;fill-rule:nonzero;stroke:none"
             transform="matrix(1,0,0,-1,80.8,447.8)"><tspan
               id="tspan194"
               y="0"
               x="0 6 12 18 24 30 36 42 48 54 60 66 72 78 84 90 96 102 108 114 120 126 132 138 144 150 156 162 168 174 180 186 192 198">&lt;param name=&quot;0Curve&quot; value=&quot;0.0&quot;/&gt;</tspan></text>
</g><g
           id="g196"><text
             id="text198"
             style="font-variant:normal;font-weight:normal;font-size:10px;font-family:'Liberation Mono';-inkscape-font-specification:LiberationMono;writing-mode:lr-tb;fill:#000000;fill-opacity:1;fill-rule:nonzero;stroke:none"
             transform="matrix(1,0,0,-1,80.8,436.4)"><tspan
               id="tspan200"
               y="0"
               x="0 6 12 18 24 30 36 42 48 54 60 66 72 78 84 90 96 102 108 114 120 126 132 138 144 150 156 162 168 174 180 186 192 198 204">&lt;param name=&quot;0CurveV&quot; value=&quot;0.0&quot;/&gt;</tspan></text>
</g><g
           id="g202"><text
             id="text204"
             style="font-variant:normal;font-weight:normal;font-size:10px;font-family:'Liberation Mono';-inkscape-font-specification:LiberationMono;writing-mode:lr-tb;fill:#000000;fill-opacity:1;fill-rule:nonzero;stroke:none"
             transform="matrix(1,0,0,-1,80.8,425.1)"><tspan
               id="tspan206"
               y="0"
               x="0 6 12 18 24 30 36 42 48 54 60 66 72 78 84 90 96 102 108 114 120 126 132 138 144 150 156 162 168 174 180 186 192 198 204 210 216 222">&lt;param name=&quot;0CurveBack&quot; value=&quot;0.0&quot;/&gt;</tspan></text>
</g><g
           id="g208"><text
             id="text210"
             style="font-variant:normal;font-weight:normal;font-size:10px;font-family:'Liberation Mono';-inkscape-font-specification:LiberationMono;writing-mode:lr-tb;fill:#000000;fill-opacity:1;fill-rule:nonzero;stroke:none"
             transform="matrix(1,0,0,-1,80.8,413.7)"><tspan
               id="tspan212"
               y="0"
               x="0 6 12 18 24 30 36 42 48 54 60 66 72 78 84 90">&lt;!-- level 1 --&gt;</tspan></text>
</g><g
           id="g214"><text
             id="text216"
             style="font-variant:normal;font-weight:normal;font-size:10px;font-family:'Liberation Mono';-inkscape-font-specification:LiberationMono;writing-mode:lr-tb;fill:#000000;fill-opacity:1;fill-rule:nonzero;stroke:none"
             transform="matrix(1,0,0,-1,80.8,402.4)"><tspan
               id="tspan218"
               y="0"
               x="0 6 12 18 24 30 36 42 48 54 60 66 72 78 84 90 96 102 108 114 120 126 132 138 144 150 156 162 168 174 180 186 192 198 204 210 216">&lt;param name=&quot;1DownAngle&quot; value=&quot;55&quot;/&gt;</tspan></text>
</g><g
           id="g220"><text
             id="text222"
             style="font-variant:normal;font-weight:normal;font-size:10px;font-family:'Liberation Mono';-inkscape-font-specification:LiberationMono;writing-mode:lr-tb;fill:#000000;fill-opacity:1;fill-rule:nonzero;stroke:none"
             transform="matrix(1,0,0,-1,80.8,391)"><tspan
               id="tspan224"
               y="0"
               x="0 6 12 18 24 30 36 42 48 54 60 66 72 78 84 90 96 102 108 114 120 126 132 138 144 150 156 162 168 174 180 186 192 198 204 210 216 222 228">&lt;param name=&quot;1DownAngleV&quot; value=&quot;-45&quot;/&gt;</tspan></text>
</g><g
           id="g226"><text
             id="text228"
             style="font-variant:normal;font-weight:normal;font-size:10px;font-family:'Liberation Mono';-inkscape-font-specification:LiberationMono;writing-mode:lr-tb;fill:#000000;fill-opacity:1;fill-rule:nonzero;stroke:none"
             transform="matrix(1,0,0,-1,80.8,379.7)"><tspan
               id="tspan230"
               y="0"
               x="0 6 12 18 24 30 36 42 48 54 60 66 72 78 84 90 96 102 108 114 120 126 132 138 144 150 156 162 168 174 180 186 192 198 204 210 216">&lt;param name=&quot;1Rotate&quot; value=&quot;140.0&quot;/&gt;</tspan></text>
</g><g
           id="g232"><text
             id="text234"
             style="font-variant:normal;font-weight:normal;font-size:10px;font-family:'Liberation Mono';-inkscape-font-specification:LiberationMono;writing-mode:lr-tb;fill:#000000;fill-opacity:1;fill-rule:nonzero;stroke:none"
             transform="matrix(1,0,0,-1,80.8,368.3)"><tspan
               id="tspan236"
               y="0"
               x="0 6 12 18 24 30 36 42 48 54 60 66 72 78 84 90 96 102 108 114 120 126 132 138 144 150 156 162 168 174 180 186 192 198 204 210">&lt;param name=&quot;1RotateV&quot; value=&quot;0.0&quot;/&gt;</tspan></text>
</g><g
           id="g238"><text
             id="text240"
             style="font-variant:normal;font-weight:normal;font-size:10px;font-family:'Liberation Mono';-inkscape-font-specification:LiberationMono;writing-mode:lr-tb;fill:#000000;fill-opacity:1;fill-rule:nonzero;stroke:none"
             transform="matrix(1,0,0,-1,80.8,357)"><tspan
               id="tspan242"
               y="0"
               x="0 6 12 18 24 30 36 42 48 54 60 66 72 78 84 90 96 102 108 114 120 126 132 138 144 150 156 162 168 174 180 186 192 198 204 210">&lt;param name=&quot;1Branches&quot; value=&quot;75&quot;/&gt;</tspan></text>
</g><g
           id="g244"><text
             id="text246"
             style="font-variant:normal;font-weight:normal;font-size:10px;font-family:'Liberation Mono';-inkscape-font-specification:LiberationMono;writing-mode:lr-tb;fill:#000000;fill-opacity:1;fill-rule:nonzero;stroke:none"
             transform="matrix(1,0,0,-1,80.8,345.6)"><tspan
               id="tspan248"
               y="0"
               x="0 6 12 18 24 30 36 42 48 54 60 66 72 78 84 90 96 102 108 114 120 126 132 138 144 150 156 162 168 174 180 186 192 198 204">&lt;param name=&quot;1Length&quot; value=&quot;0.4&quot;/&gt;</tspan></text>
</g><g
           id="g250"><text
             id="text252"
             style="font-variant:normal;font-weight:normal;font-size:10px;font-family:'Liberation Mono';-inkscape-font-specification:LiberationMono;writing-mode:lr-tb;fill:#000000;fill-opacity:1;fill-rule:nonzero;stroke:none"
             transform="matrix(1,0,0,-1,80.8,334.3)"><tspan
               id="tspan254"
               y="0"
               x="0 6 12 18 24 30 36 42 48 54 60 66 72 78 84 90 96 102 108 114 120 126 132 138 144 150 156 162 168 174 180 186 192 198 204 210">&lt;param name=&quot;1LengthV&quot; value=&quot;0.0&quot;/&gt;</tspan></text>
</g><g
           id="g256"><text
             id="text258"
             style="font-variant:normal;font-weight:normal;font-size:10px;font-family:'Liberation Mono';-inkscape-font-specification:LiberationMono;writing-mode:lr-tb;fill:#000000;fill-opacity:1;fill-rule:nonzero;stroke:none"
             transform="matrix(1,0,0,-1,80.8,322.9)"><tspan
               id="tspan260"
               y="0"
               x="0 6 12 18 24 30 36 42 48 54 60 66 72 78 84 90 96 102 108 114 120 126 132 138 144 150 156 162 168 174 180 186 192 198">&lt;param name=&quot;1Taper&quot; value=&quot;1.0&quot;/&gt;</tspan></text>
</g><g
           id="g262"><text
             id="text264"
             style="font-variant:normal;font-weight:normal;font-size:10px;font-family:'Liberation Mono';-inkscape-font-specification:LiberationMono;writing-mode:lr-tb;fill:#000000;fill-opacity:1;fill-rule:nonzero;stroke:none"
             transform="matrix(1,0,0,-1,80.8,311.6)"><tspan
               id="tspan266"
               y="0"
               x="0 6 12 18 24 30 36 42 48 54 60 66 72 78 84 90 96 102 108 114 120 126 132 138 144 150 156 162 168 174 180 186 192 198 204 210 216 222">&lt;param name=&quot;1SegSplits&quot; value=&quot;0.0&quot;/&gt;</tspan></text>
</g><g
           id="g268"><text
             id="text270"
             style="font-variant:normal;font-weight:normal;font-size:10px;font-family:'Liberation Mono';-inkscape-font-specification:LiberationMono;writing-mode:lr-tb;fill:#000000;fill-opacity:1;fill-rule:nonzero;stroke:none"
             transform="matrix(1,0,0,-1,80.8,300.2)"><tspan
               id="tspan272"
               y="0"
               x="0 6 12 18 24 30 36 42 48 54 60 66 72 78 84 90 96 102 108 114 120 126 132 138 144 150 156 162 168 174 180 186 192 198 204">&lt;param name=&quot;1CurveRes&quot; value=&quot;8&quot;/&gt;</tspan></text>
</g><g
           id="g274"><text
             id="text276"
             style="font-variant:normal;font-weight:normal;font-size:10px;font-family:'Liberation Mono';-inkscape-font-specification:LiberationMono;writing-mode:lr-tb;fill:#000000;fill-opacity:1;fill-rule:nonzero;stroke:none"
             transform="matrix(1,0,0,-1,80.8,288.9)"><tspan
               id="tspan278"
               y="0"
               x="0 6 12 18 24 30 36 42 48 54 60 66 72 78 84 90 96 102 108 114 120 126 132 138 144 150 156 162 168 174 180 186 192 198 204 210">&lt;param name=&quot;1Curve&quot; value=&quot;-30.0&quot;/&gt;</tspan></text>
</g><g
           id="g280"><text
             id="text282"
             style="font-variant:normal;font-weight:normal;font-size:10px;font-family:'Liberation Mono';-inkscape-font-specification:LiberationMono;writing-mode:lr-tb;fill:#000000;fill-opacity:1;fill-rule:nonzero;stroke:none"
             transform="matrix(1,0,0,-1,80.8,277.5)"><tspan
               id="tspan284"
               y="0"
               x="0 6 12 18 24 30 36 42 48 54 60 66 72 78 84 90 96 102 108 114 120 126 132 138 144 150 156 162 168 174 180 186 192 198 204 210 216">&lt;param name=&quot;1CurveV&quot; value=&quot;120.0&quot;/&gt;</tspan></text>
</g><g
           id="g286"><text
             id="text288"
             style="font-variant:normal;font-weight:normal;font-size:10px;font-family:'Liberation Mono';-inkscape-font-specification:LiberationMono;writing-mode:lr-tb;fill:#000000;fill-opacity:1;fill-rule:nonzero;stroke:none"
             transform="matrix(1,0,0,-1,80.8,266.2)"><tspan
               id="tspan290"
               y="0"
               x="0 6 12 18 24 30 36 42 48 54 60 66 72 78 84 90 96 102 108 114 120 126 132 138 144 150 156 162 168 174 180 186 192 198 204 210 216 222">&lt;param name=&quot;1CurveBack&quot; value=&quot;0.0&quot;/&gt;</tspan></text>
</g><g
           id="g292"><text
             id="text294"
             style="font-variant:normal;font-weight:normal;font-size:10px;font-family:'Liberation Mono';-inkscape-font-specification:LiberationMono;writing-mode:lr-tb;fill:#000000;fill-opacity:1;fill-rule:nonzero;stroke:none"
             transform="matrix(1,0,0,-1,80.8,254.8)"><tspan
               id="tspan296"
               y="0"
               x="0 6 12 18 24 30 36 42 48 54 60 66 72 78 84 90">&lt;!-- level 2 --&gt;</tspan></text>
</g><g
           id="g298"><text
             id="text300"
             style="font-variant:normal;font-weight:normal;font-size:10px;font-family:'Liberation Mono';-inkscape-font-specification:LiberationMono;writing-mode:lr-tb;fill:#000000;fill-opacity:1;fill-rule:nonzero;stroke:none"
             transform="matrix(1,0,0,-1,80.8,243.5)"><tspan
               id="tspan302"
               y="0"
               x="0 6 12 18 24 30 36 42 48 54 60 66 72 78 84 90 96 102 108 114 120 126 132 138 144 150 156 162 168 174 180 186 192 198 204 210 216 222 228">&lt;param name=&quot;2DownAngle&quot; value=&quot;45.0&quot;/&gt;</tspan></text>
</g><g
           id="g304"><text
             id="text306"
             style="font-variant:normal;font-weight:normal;font-size:10px;font-family:'Liberation Mono';-inkscape-font-specification:LiberationMono;writing-mode:lr-tb;fill:#000000;fill-opacity:1;fill-rule:nonzero;stroke:none"
             transform="matrix(1,0,0,-1,80.8,232.1)"><tspan
               id="tspan308"
               y="0"
               x="0 6 12 18 24 30 36 42 48 54 60 66 72 78 84 90 96 102 108 114 120 126 132 138 144 150 156 162 168 174 180 186 192 198 204 210 216 222 228 234">&lt;param name=&quot;2DownAngleV&quot; value=&quot;10.0&quot;/&gt;</tspan></text>
</g><g
           id="g310"><text
             id="text312"
             style="font-variant:normal;font-weight:normal;font-size:10px;font-family:'Liberation Mono';-inkscape-font-specification:LiberationMono;writing-mode:lr-tb;fill:#000000;fill-opacity:1;fill-rule:nonzero;stroke:none"
             transform="matrix(1,0,0,-1,80.8,220.8)"><tspan
               id="tspan314"
               y="0"
               x="0 6 12 18 24 30 36 42 48 54 60 66 72 78 84 90 96 102 108 114 120 126 132 138 144 150 156 162 168 174 180 186 192 198 204 210 216">&lt;param name=&quot;2Rotate&quot; value=&quot;140.0&quot;/&gt;</tspan></text>
</g><g
           id="g316"><text
             id="text318"
             style="font-variant:normal;font-weight:normal;font-size:10px;font-family:'Liberation Mono';-inkscape-font-specification:LiberationMono;writing-mode:lr-tb;fill:#000000;fill-opacity:1;fill-rule:nonzero;stroke:none"
             transform="matrix(1,0,0,-1,80.8,209.4)"><tspan
               id="tspan320"
               y="0"
               x="0 6 12 18 24 30 36 42 48 54 60 66 72 78 84 90 96 102 108 114 120 126 132 138 144 150 156 162 168 174 180 186 192 198 204 210">&lt;param name=&quot;2RotateV&quot; value=&quot;0.0&quot;/&gt;</tspan></text>
</g><g
           id="g322"><text
             id="text324"
             style="font-variant:normal;font-weight:normal;font-size:10px;font-family:'Liberation Mono';-inkscape-font-specification:LiberationMono;writing-mode:lr-tb;fill:#000000;fill-opacity:1;fill-rule:nonzero;stroke:none"
             transform="matrix(1,0,0,-1,80.8,198.1)"><tspan
               id="tspan326"
               y="0"
               x="0 6 12 18 24 30 36 42 48 54 60 66 72 78 84 90 96 102 108 114 120 126 132 138 144 150 156 162 168 174 180 186 192 198 204 210">&lt;param name=&quot;2Branches&quot; value=&quot;50&quot;/&gt;</tspan></text>
</g><g
           id="g328"><text
             id="text330"
             style="font-variant:normal;font-weight:normal;font-size:10px;font-family:'Liberation Mono';-inkscape-font-specification:LiberationMono;writing-mode:lr-tb;fill:#000000;fill-opacity:1;fill-rule:nonzero;stroke:none"
             transform="matrix(1,0,0,-1,80.8,186.7)"><tspan
               id="tspan332"
               y="0"
               x="0 6 12 18 24 30 36 42 48 54 60 66 72 78 84 90 96 102 108 114 120 126 132 138 144 150 156 162 168 174 180 186 192 198 204">&lt;param name=&quot;2Length&quot; value=&quot;0.2&quot;/&gt;</tspan></text>
</g><g
           id="g334"><text
             id="text336"
             style="font-variant:normal;font-weight:normal;font-size:10px;font-family:'Liberation Mono';-inkscape-font-specification:LiberationMono;writing-mode:lr-tb;fill:#000000;fill-opacity:1;fill-rule:nonzero;stroke:none"
             transform="matrix(1,0,0,-1,80.8,175.4)"><tspan
               id="tspan338"
               y="0"
               x="0 6 12 18 24 30 36 42 48 54 60 66 72 78 84 90 96 102 108 114 120 126 132 138 144 150 156 162 168 174 180 186 192 198 204 210">&lt;param name=&quot;2LengthV&quot; value=&quot;0.0&quot;/&gt;</tspan></text>
</g><g
           id="g340"><text
             id="text342"
             style="font-variant:normal;font-weight:normal;font-size:10px;font-family:'Liberation Mono';-inkscape-font-specification:LiberationMono;writing-mode:lr-tb;fill:#000000;fill-opacity:1;fill-rule:nonzero;stroke:none"
             transform="matrix(1,0,0,-1,80.8,164)"><tspan
               id="tspan344"
               y="0"
               x="0 6 12 18 24 30 36 42 48 54 60 66 72 78 84 90 96 102 108 114 120 126 132 138 144 150 156 162 168 174 180 186 192 198">&lt;param name=&quot;2Taper&quot; value=&quot;1.0&quot;/&gt;</tspan></text>
</g><g
           id="g346"><text
             id="text348"
             style="font-variant:normal;font-weight:normal;font-size:10px;font-family:'Liberation Mono';-inkscape-font-specification:LiberationMono;writing-mode:lr-tb;fill:#000000;fill-opacity:1;fill-rule:nonzero;stroke:none"
             transform="matrix(1,0,0,-1,80.8,152.7)"><tspan
               id="tspan350"
               y="0"
               x="0 6 12 18 24 30 36 42 48 54 60 66 72 78 84 90 96 102 108 114 120 126 132 138 144 150 156 162 168 174 180 186 192 198 204 210 216 222">&lt;param name=&quot;2SegSplits&quot; value=&quot;0.0&quot;/&gt;</tspan></text>
</g><g
           id="g352"><text
             id="text354"
             style="font-variant:normal;font-weight:normal;font-size:10px;font-family:'Liberation Mono';-inkscape-font-specification:LiberationMono;writing-mode:lr-tb;fill:#000000;fill-opacity:1;fill-rule:nonzero;stroke:none"
             transform="matrix(1,0,0,-1,80.8,141.3)"><tspan
               id="tspan356"
               y="0"
               x="0 6 12 18 24 30 36 42 48 54 60 66 72 78 84 90 96 102 108 114 120 126 132 138 144 150 156 162 168 174 180 186 192 198 204">&lt;param name=&quot;2CurveRes&quot; value=&quot;8&quot;/&gt;</tspan></text>
</g><g
           id="g358"><text
             id="text360"
             style="font-variant:normal;font-weight:normal;font-size:10px;font-family:'Liberation Mono';-inkscape-font-specification:LiberationMono;writing-mode:lr-tb;fill:#000000;fill-opacity:1;fill-rule:nonzero;stroke:none"
             transform="matrix(1,0,0,-1,80.8,130)"><tspan
               id="tspan362"
               y="0"
               x="0 6 12 18 24 30 36 42 48 54 60 66 72 78 84 90 96 102 108 114 120 126 132 138 144 150 156 162 168 174 180 186 192 198">&lt;param name=&quot;2Curve&quot; value=&quot;0.0&quot;/&gt;</tspan></text>
</g><g
           id="g364"><text
             id="text366"
             style="font-variant:normal;font-weight:normal;font-size:10px;font-family:'Liberation Mono';-inkscape-font-specification:LiberationMono;writing-mode:lr-tb;fill:#000000;fill-opacity:1;fill-rule:nonzero;stroke:none"
             transform="matrix(1,0,0,-1,80.8,118.6)"><tspan
               id="tspan368"
               y="0"
               x="0 6 12 18 24 30 36 42 48 54 60 66 72 78 84 90 96 102 108 114 120 126 132 138 144 150 156 162 168 174 180 186 192 198 204 210 216">&lt;param name=&quot;2CurveV&quot; value=&quot;180.0&quot;/&gt;</tspan></text>
</g><g
           id="g370"><text
             id="text372"
             style="font-variant:normal;font-weight:normal;font-size:10px;font-family:'Liberation Mono';-inkscape-font-specification:LiberationMono;writing-mode:lr-tb;fill:#000000;fill-opacity:1;fill-rule:nonzero;stroke:none"
             transform="matrix(1,0,0,-1,80.8,107.3)"><tspan
               id="tspan374"
               y="0"
               x="0 6 12 18 24 30 36 42 48 54 60 66 72 78 84 90 96 102 108 114 120 126 132 138 144 150 156 162 168 174 180 186 192 198 204 210 216 222">&lt;param name=&quot;2CurveBack&quot; value=&quot;0.0&quot;/&gt;</tspan></text>
</g><g
           id="g376"><text
             id="text378"
             style="font-variant:normal;font-weight:normal;font-size:10px;font-family:'Liberation Mono';-inkscape-font-specification:LiberationMono;writing-mode:lr-tb;fill:#000000;fill-opacity:1;fill-rule:nonzero;stroke:none"
             transform="matrix(1,0,0,-1,80.8,95.9)"><tspan
               id="tspan380"
               y="0"
               x="0 6 12 18 24 30 36 42 48 54 60 66 72 78 84 90 96 102 108">&lt;!-- leaf level --&gt;</tspan></text>
</g><g
           id="g382"><text
             id="text384"
             style="font-variant:normal;font-weight:normal;font-size:10px;font-family:'Liberation Mono';-inkscape-font-specification:LiberationMono;writing-mode:lr-tb;fill:#000000;fill-opacity:1;fill-rule:nonzero;stroke:none"
             transform="matrix(1,0,0,-1,80.8,84.6)"><tspan
               id="tspan386"
               y="0"
               x="0 6 12 18 24 30 36 42 48 54 60 66 72 78 84 90 96 102 108 114 120 126 132 138 144 150 156 162 168 174 180 186 192 198 204 210 216 222 228">&lt;param name=&quot;3DownAngle&quot; value=&quot;45.0&quot;/&gt;</tspan></text>
</g><g
           id="g388"><text
             id="text390"
             style="font-variant:normal;font-weight:normal;font-size:10px;font-family:'Liberation Mono';-inkscape-font-specification:LiberationMono;writing-mode:lr-tb;fill:#000000;fill-opacity:1;fill-rule:nonzero;stroke:none"
             transform="matrix(1,0,0,-1,80.8,73.2)"><tspan
               id="tspan392"
               y="0"
               x="0 6 12 18 24 30 36 42 48 54 60 66 72 78 84 90 96 102 108 114 120 126 132 138 144 150 156 162 168 174 180 186 192 198 204 210 216 222 228 234">&lt;param name=&quot;3DownAngleV&quot; value=&quot;10.0&quot;/&gt;</tspan></text>
</g><g
           id="g394"><text
             id="text396"
             style="font-variant:normal;font-weight:normal;font-size:10px;font-family:'Liberation Mono';-inkscape-font-specification:LiberationMono;writing-mode:lr-tb;fill:#000000;fill-opacity:1;fill-rule:nonzero;stroke:none"
             transform="matrix(1,0,0,-1,80.8,61.9)"><tspan
               id="tspan398"
               y="0"
               x="0 6 12 18 24 30 36 42 48 54 60 66 72 78 84 90 96 102 108 114 120 126 132 138 144 150 156 162 168 174 180 186 192 198 204 210 216">&lt;param name=&quot;3Rotate&quot; value=&quot;140.0&quot;/&gt;</tspan></text>
</g></g></g></g></svg>